<svg width="67" height="61" viewBox="0 0 67 61" fill="none" xmlns="http://www.w3.org/2000/svg">
<path fill-rule="evenodd" clip-rule="evenodd" d="M5.26965 0.752817H63.9888V59.4719H5.26965V51.191H4.51685V59.4719V60.2247H5.26965H63.9888H64.7416V59.4719V0.752817V7.62939e-06H63.9888H5.26965H4.51685V0.752817V40.6517H5.26965V0.752817Z" fill="white"/>
<path d="M4.68594 49.6517H2.20549V41.9839H4.76313C5.51447 41.9839 6.16117 42.1383 6.70323 42.4471C7.24872 42.7558 7.66728 43.1967 7.95889 43.7696C8.25051 44.3391 8.39632 45.0184 8.39632 45.8075C8.39632 46.6 8.24879 47.2845 7.95375 47.8608C7.66213 48.4338 7.23843 48.8763 6.68265 49.1885C6.13029 49.4973 5.46472 49.6517 4.68594 49.6517ZM3.34794 48.6585H4.61389C5.50932 48.6585 6.17146 48.4063 6.60031 47.902C7.03259 47.3977 7.24872 46.6995 7.24872 45.8075C7.24872 44.9189 7.03602 44.2259 6.6106 43.7285C6.18519 43.2276 5.54535 42.9771 4.69109 42.9771H3.34794V48.6585ZM9.21476 49.6517V44.2174H10.3006V49.6517H9.21476ZM9.75511 43.2808C9.56298 43.2808 9.40002 43.2173 9.26622 43.0903C9.13585 42.96 9.07067 42.8022 9.07067 42.6169C9.07067 42.4282 9.13585 42.2704 9.26622 42.1435C9.40002 42.0131 9.56298 41.9479 9.75511 41.9479C9.94723 41.9479 10.1102 42.0131 10.244 42.1435C10.3778 42.2704 10.4447 42.4282 10.4447 42.6169C10.4447 42.8022 10.3778 42.96 10.244 43.0903C10.1102 43.2173 9.94723 43.2808 9.75511 43.2808ZM13.6921 51.8748C13.0266 51.8748 12.4828 51.7273 12.0608 51.4323C11.6388 51.1372 11.3918 50.7238 11.3197 50.192H12.4056C12.4742 50.4562 12.6234 50.6552 12.8533 50.789C13.0832 50.9228 13.3628 50.9897 13.6921 50.9897C14.1313 50.9897 14.4743 50.8713 14.7214 50.6346C14.9684 50.3979 15.0919 50.06 15.0919 49.6208V48.7974H15.0867C14.898 49.1131 14.6596 49.3464 14.3714 49.4973C14.0867 49.6483 13.7659 49.7237 13.4091 49.7237C12.9356 49.7237 12.5222 49.6054 12.1689 49.3687C11.8155 49.1285 11.541 48.7991 11.3455 48.3806C11.1499 47.9586 11.0521 47.4714 11.0521 46.9191C11.0521 46.3667 11.1499 45.8796 11.3455 45.4576C11.5445 45.0356 11.8206 44.7062 12.174 44.4695C12.5274 44.2294 12.9374 44.1093 13.4039 44.1093C13.7573 44.1093 14.0815 44.1848 14.3766 44.3357C14.6716 44.4867 14.91 44.7234 15.0919 45.0459H15.097V44.2174H16.1674V49.5796C16.1674 50.1286 16.0559 50.5711 15.8329 50.9074C15.6099 51.2436 15.3114 51.4889 14.9375 51.6433C14.5635 51.7976 14.1484 51.8748 13.6921 51.8748ZM13.6304 48.7923C14.0935 48.7923 14.4623 48.6225 14.7368 48.2828C15.0147 47.9397 15.1536 47.4834 15.1536 46.9139C15.1536 46.3444 15.0147 45.8899 14.7368 45.5502C14.4623 45.2071 14.0935 45.0356 13.6304 45.0356C13.1912 45.0356 12.8344 45.1968 12.56 45.5193C12.2889 45.8384 12.1534 46.3033 12.1534 46.9139C12.1534 47.5246 12.2889 47.9912 12.56 48.3137C12.8344 48.6328 13.1912 48.7923 13.6304 48.7923ZM17.1814 49.6517V44.2174H18.2673V49.6517H17.1814ZM17.7218 43.2808C17.5296 43.2808 17.3667 43.2173 17.2329 43.0903C17.1025 42.96 17.0373 42.8022 17.0373 42.6169C17.0373 42.4282 17.1025 42.2704 17.2329 42.1435C17.3667 42.0131 17.5296 41.9479 17.7218 41.9479C17.9139 41.9479 18.0769 42.0131 18.2107 42.1435C18.3445 42.2704 18.4114 42.4282 18.4114 42.6169C18.4114 42.8022 18.3445 42.96 18.2107 43.0903C18.0769 43.2173 17.9139 43.2808 17.7218 43.2808ZM21.9984 44.2174V45.1128H20.8972V48.2159C20.8972 48.4183 20.9383 48.559 21.0207 48.6379C21.103 48.7168 21.2522 48.7563 21.4684 48.7563H21.9984V49.6517H21.314C20.3088 49.6517 19.8062 49.2194 19.8062 48.3549V45.1128H18.849V44.2174H19.8062V42.7353H20.8972V44.2174H21.9984ZM24.4379 49.7392C23.8958 49.7392 23.4464 49.6019 23.0896 49.3275C22.7328 49.0496 22.5544 48.6396 22.5544 48.0976C22.5544 47.6859 22.6556 47.3702 22.858 47.1507C23.0639 46.9277 23.3298 46.7681 23.6557 46.6721C23.985 46.576 24.3333 46.5057 24.7004 46.4611C25.04 46.4199 25.3093 46.3856 25.5083 46.3582C25.7073 46.3307 25.848 46.2895 25.9303 46.2346C26.0161 46.1798 26.059 46.0854 26.059 45.9516V45.9053C26.059 45.6411 25.9629 45.425 25.7708 45.2569C25.5786 45.0853 25.3093 44.9996 24.9628 44.9996C24.6163 44.9996 24.3333 45.0836 24.1137 45.2517C23.8941 45.4164 23.7741 45.624 23.7535 45.8744H22.6882C22.7122 45.3564 22.9301 44.9327 23.3418 44.6033C23.7535 44.274 24.299 44.1093 24.9783 44.1093C25.6473 44.1093 26.1739 44.274 26.5581 44.6033C26.9424 44.9327 27.1345 45.3735 27.1345 45.9259V49.6517H26.0641V48.8798H26.0435C25.9303 49.0993 25.7502 49.2983 25.5032 49.4767C25.2596 49.6517 24.9045 49.7392 24.4379 49.7392ZM24.6592 48.8643C25.1395 48.8643 25.4929 48.7408 25.7193 48.4938C25.9492 48.2434 26.0641 47.9517 26.0641 47.619V46.9808C25.9921 47.0392 25.8291 47.0923 25.5752 47.1404C25.3213 47.185 25.0503 47.2279 24.7621 47.269C24.4636 47.3136 24.2012 47.3977 23.9748 47.5212C23.7483 47.6447 23.6351 47.8437 23.6351 48.1181C23.6351 48.3514 23.726 48.535 23.9079 48.6688C24.0931 48.7991 24.3436 48.8643 24.6592 48.8643ZM29.2343 41.9839V49.6517H28.1485V41.9839H29.2343ZM32.1886 42.9874V41.9839H38.2148V42.9874H35.7807V49.6517H34.6331V42.9874H32.1886ZM39.9338 49.7752C39.3952 49.7752 38.932 49.6534 38.5443 49.4098C38.1601 49.1662 37.8633 48.8317 37.6541 48.4063C37.4482 47.9775 37.3453 47.4903 37.3453 46.9448C37.3453 46.3925 37.4534 45.9019 37.6695 45.473C37.8856 45.0442 38.1841 44.708 38.5649 44.4644C38.9457 44.2174 39.3832 44.0938 39.8772 44.0938C40.3918 44.0938 40.8378 44.2139 41.2152 44.4541C41.596 44.6942 41.8911 45.0287 42.1003 45.4576C42.3096 45.883 42.4143 46.3753 42.4143 46.9345V47.2279H38.4157C38.4363 47.7185 38.5769 48.1147 38.8377 48.4166C39.1018 48.7185 39.4724 48.8695 39.9492 48.8695C40.306 48.8695 40.5994 48.7889 40.8292 48.6276C41.0591 48.4664 41.2118 48.2571 41.2872 47.9998H42.3319C42.2667 48.3497 42.1209 48.6585 41.8945 48.9261C41.6715 49.1937 41.3902 49.403 41.0505 49.5539C40.7143 49.7014 40.3421 49.7752 39.9338 49.7752ZM38.426 46.4045H41.3541C41.3095 45.9722 41.1569 45.6308 40.8961 45.3804C40.6354 45.1265 40.2992 44.9996 39.8875 44.9996C39.4758 44.9996 39.1396 45.1265 38.8788 45.3804C38.6215 45.6308 38.4706 45.9722 38.426 46.4045ZM42.4299 49.6517L44.4318 46.8831L42.5534 44.2174H43.7936L44.442 45.1848C44.545 45.3461 44.6462 45.5039 44.7457 45.6583C44.8486 45.8127 44.9481 45.9688 45.0441 46.1266C45.1471 45.9688 45.2483 45.8127 45.3478 45.6583C45.4473 45.5039 45.5519 45.3461 45.6617 45.1848L46.3204 44.2174H47.54L45.6565 46.8676L47.6327 49.6517H46.3924L45.636 48.5504C45.533 48.3926 45.4318 48.2382 45.3323 48.0873C45.2328 47.9363 45.1351 47.7854 45.039 47.6344C44.9395 47.7854 44.8383 47.9363 44.7354 48.0873C44.6359 48.2382 44.5347 48.3926 44.4318 48.5504L43.6598 49.6517H42.4299Z" fill="white"/>
</svg>
