<svg width="152" height="137" viewBox="0 0 152 137" fill="none" xmlns="http://www.w3.org/2000/svg">
<path fill-rule="evenodd" clip-rule="evenodd" d="M11.9551 1.70787H145.169V134.921H11.9551V116.135H10.2472V134.921V136.629H11.9551H145.169H146.876V134.921V1.70787V0H145.169H11.9551H10.2472V1.70787V92.2249H11.9551V1.70787Z" fill="#2A2A2A"/>
<path d="M10.6308 113.225H5.00355V95.8296H10.806C12.5105 95.8296 13.9776 96.1798 15.2074 96.8803C16.4449 97.5808 17.3945 98.5809 18.056 99.8807C18.7176 101.173 19.0484 102.714 19.0484 104.504C19.0484 106.302 18.7137 107.855 18.0444 109.162C17.3828 110.462 16.4216 111.466 15.1607 112.174C13.9076 112.875 12.3976 113.225 10.6308 113.225ZM7.59537 110.972H10.4674C12.4988 110.972 14.001 110.4 14.9739 109.256C15.9546 108.112 16.4449 106.528 16.4449 104.504C16.4449 102.488 15.9624 100.916 14.9972 99.7873C14.0321 98.651 12.5805 98.0828 10.6425 98.0828H7.59537V110.972ZM20.9052 113.225V100.896H23.3686V113.225H20.9052ZM22.131 98.7716C21.6952 98.7716 21.3255 98.6276 21.0219 98.3397C20.7262 98.0439 20.5783 97.6859 20.5783 97.2656C20.5783 96.8375 20.7262 96.4795 21.0219 96.1915C21.3255 95.8957 21.6952 95.7478 22.131 95.7478C22.5669 95.7478 22.9366 95.8957 23.2401 96.1915C23.5437 96.4795 23.6955 96.8375 23.6955 97.2656C23.6955 97.6859 23.5437 98.0439 23.2401 98.3397C22.9366 98.6276 22.5669 98.7716 22.131 98.7716ZM31.0628 118.269C29.5528 118.269 28.3192 117.934 27.3618 117.265C26.4045 116.595 25.8441 115.657 25.6807 114.451H28.1441C28.2997 115.05 28.6383 115.502 29.1598 115.805C29.6812 116.109 30.3156 116.261 31.0628 116.261C32.059 116.261 32.8373 115.992 33.3977 115.455C33.9581 114.918 34.2383 114.151 34.2383 113.155V111.287H34.2267C33.7986 112.003 33.2576 112.532 32.6038 112.875C31.9578 113.217 31.2301 113.389 30.4207 113.389C29.3466 113.389 28.4087 113.12 27.607 112.583C26.8053 112.038 26.1827 111.291 25.739 110.341C25.2954 109.384 25.0736 108.279 25.0736 107.026C25.0736 105.773 25.2954 104.667 25.739 103.71C26.1905 102.753 26.817 102.006 27.6187 101.469C28.4204 100.924 29.3505 100.651 30.409 100.651C31.2107 100.651 31.9462 100.823 32.6155 101.165C33.2849 101.507 33.8258 102.044 34.2383 102.776H34.25V100.896H36.6784V113.062C36.6784 114.307 36.4254 115.311 35.9195 116.074C35.4136 116.837 34.7365 117.393 33.8881 117.743C33.0397 118.094 32.0979 118.269 31.0628 118.269ZM30.9227 111.275C31.9734 111.275 32.8101 110.89 33.4328 110.12C34.0632 109.341 34.3784 108.306 34.3784 107.014C34.3784 105.722 34.0632 104.691 33.4328 103.92C32.8101 103.142 31.9734 102.753 30.9227 102.753C29.9264 102.753 29.117 103.119 28.4943 103.85C27.8794 104.574 27.572 105.629 27.572 107.014C27.572 108.399 27.8794 109.458 28.4943 110.19C29.117 110.913 29.9264 111.275 30.9227 111.275ZM38.9788 113.225V100.896H41.4422V113.225H38.9788ZM40.2046 98.7716C39.7688 98.7716 39.3991 98.6276 39.0955 98.3397C38.7998 98.0439 38.6519 97.6859 38.6519 97.2656C38.6519 96.8375 38.7998 96.4795 39.0955 96.1915C39.3991 95.8957 39.7688 95.7478 40.2046 95.7478C40.6405 95.7478 41.0102 95.8957 41.3138 96.1915C41.6173 96.4795 41.7691 96.8375 41.7691 97.2656C41.7691 97.6859 41.6173 98.0439 41.3138 98.3397C41.0102 98.6276 40.6405 98.7716 40.2046 98.7716ZM49.9069 100.896V102.928H47.4085V109.968C47.4085 110.427 47.5019 110.746 47.6887 110.925C47.8755 111.104 48.2141 111.194 48.7044 111.194H49.9069V113.225H48.3542C46.0737 113.225 44.9334 112.244 44.9334 110.283V102.928H42.7619V100.896H44.9334V97.5341H47.4085V100.896H49.9069ZM55.4413 113.424C54.2115 113.424 53.1919 113.112 52.3825 112.49C51.573 111.859 51.1683 110.929 51.1683 109.699C51.1683 108.765 51.3979 108.049 51.8571 107.551C52.3241 107.045 52.9273 106.683 53.6667 106.465C54.4139 106.247 55.2039 106.088 56.0367 105.987C56.8072 105.893 57.4182 105.815 57.8696 105.753C58.3211 105.691 58.6402 105.598 58.827 105.473C59.0216 105.348 59.1189 105.134 59.1189 104.831V104.726C59.1189 104.126 58.9009 103.636 58.4651 103.255C58.0292 102.866 57.4182 102.671 56.6321 102.671C55.846 102.671 55.2039 102.862 54.7058 103.243C54.2076 103.617 53.9352 104.088 53.8885 104.656H51.4718C51.5263 103.48 52.0205 102.519 52.9545 101.772C53.8885 101.025 55.1261 100.651 56.6671 100.651C58.1849 100.651 59.3796 101.025 60.2513 101.772C61.123 102.519 61.5589 103.519 61.5589 104.773V113.225H59.1305V111.474H59.0838C58.827 111.972 58.4184 112.423 57.858 112.828C57.3054 113.225 56.4998 113.424 55.4413 113.424ZM55.9433 111.439C57.0329 111.439 57.8346 111.159 58.3483 110.598C58.8698 110.03 59.1305 109.369 59.1305 108.614V107.166C58.9671 107.298 58.5974 107.419 58.0214 107.528C57.4455 107.629 56.8306 107.726 56.1768 107.82C55.4996 107.921 54.9042 108.112 54.3905 108.392C53.8768 108.672 53.62 109.123 53.62 109.746C53.62 110.275 53.8263 110.692 54.2388 110.995C54.6591 111.291 55.2272 111.439 55.9433 111.439ZM66.3227 95.8296V113.225H63.8593V95.8296H66.3227ZM73.025 98.1062V95.8296H86.6963V98.1062H81.1741V113.225H78.5706V98.1062H73.025ZM90.5961 113.505C89.3742 113.505 88.3234 113.229 87.4439 112.676C86.5722 112.124 85.899 111.365 85.4242 110.4C84.9572 109.427 84.7237 108.322 84.7237 107.084C84.7237 105.831 84.9689 104.718 85.4592 103.745C85.9495 102.772 86.6267 102.009 87.4906 101.457C88.3546 100.896 89.3469 100.616 90.4677 100.616C91.6352 100.616 92.647 100.889 93.5032 101.433C94.3671 101.978 95.0365 102.737 95.5113 103.71C95.986 104.675 96.2234 105.792 96.2234 107.061V107.726H87.1521C87.1988 108.839 87.5179 109.738 88.1094 110.423C88.7087 111.108 89.5493 111.451 90.6312 111.451C91.4406 111.451 92.1061 111.268 92.6276 110.902C93.149 110.536 93.4954 110.061 93.6666 109.477H96.0366C95.8887 110.271 95.558 110.972 95.0443 111.579C94.5383 112.186 93.9001 112.661 93.1296 113.003C92.3668 113.338 91.5223 113.505 90.5961 113.505ZM87.1754 105.858H93.8184C93.7172 104.878 93.3709 104.103 92.7793 103.535C92.1878 102.959 91.4251 102.671 90.4911 102.671C89.5571 102.671 88.7943 102.959 88.2028 103.535C87.619 104.103 87.2766 104.878 87.1754 105.858ZM96.2589 113.225L100.8 106.944L96.5391 100.896H99.3527L100.824 103.091C101.057 103.457 101.287 103.815 101.513 104.165C101.746 104.516 101.972 104.87 102.19 105.228C102.423 104.87 102.653 104.516 102.879 104.165C103.104 103.815 103.342 103.457 103.591 103.091L105.085 100.896H107.852L103.579 106.909L108.062 113.225H105.249L103.532 110.727C103.299 110.369 103.069 110.018 102.844 109.676C102.618 109.333 102.396 108.991 102.178 108.649C101.952 108.991 101.723 109.333 101.489 109.676C101.264 110.018 101.034 110.369 100.8 110.727L99.0492 113.225H96.2589Z" fill="#2A2A2A"/>
</svg>
