<svg width="24" height="24" viewBox="0 0 24 24" fill="none" xmlns="http://www.w3.org/2000/svg">
<rect width="24" height="24" fill="#B0B0B0"/>
<path d="M9.6975 15.4049L6.80156 12.126C6.40828 11.7327 6.40828 11.0952 6.80156 10.7019C7.19484 10.3086 7.83234 10.3086 8.22562 10.7019L9.35015 11.8265V4.58427C9.35015 4.02786 9.80109 3.57739 10.357 3.57739C10.9134 3.57739 11.3639 4.02833 11.3639 4.58427V8.3563C11.3639 7.79989 11.8148 7.34942 12.3708 7.34942C12.9272 7.34942 13.3777 7.80036 13.3777 8.3563V9.34489C13.3777 8.78849 13.8286 8.33802 14.3845 8.33802C14.9409 8.33802 15.3914 8.78895 15.3914 9.34489V10.4436C15.3914 9.88724 15.8423 9.43677 16.3983 9.43677C16.9547 9.43677 17.4052 9.88771 17.4052 10.4436V12.7227C17.4052 12.9932 17.3555 13.2608 17.258 13.513L16.4353 15.6468C16.3383 15.899 16.2881 16.1671 16.2881 16.4371C16.2881 16.5936 16.1611 16.7211 16.0041 16.7211H10.4925C10.3528 16.7211 10.2361 16.619 10.2122 16.4811C10.1428 16.0841 9.96516 15.711 9.69516 15.4054L9.6975 15.4049ZM17.4933 19.3241V18.2254C17.4933 17.6188 17.0016 17.1266 16.3945 17.1266H10.1691C9.5625 17.1266 9.07031 17.6183 9.07031 18.2254V19.3241C9.07031 19.9307 9.56203 20.4229 10.1691 20.4229H16.3945C17.0011 20.4229 17.4933 19.9311 17.4933 19.3241ZM13.3336 6.32708C13.4456 6.2202 13.4395 6.03505 13.3303 5.92536L13.0355 5.63052H15.7378L15.4425 5.92583C15.3361 6.03224 15.3253 6.20661 15.4284 6.3163C15.5353 6.42974 15.7134 6.43161 15.8227 6.32239L16.5947 5.55036C16.702 5.44302 16.702 5.26911 16.5947 5.16177L15.8227 4.38974C15.7692 4.3363 15.6989 4.30911 15.6286 4.30911C15.5583 4.30911 15.4922 4.33442 15.4392 4.38458C15.3272 4.49146 15.3333 4.67661 15.4425 4.7863L15.7373 5.08114H13.035L13.3303 4.78583C13.4367 4.67942 13.4475 4.50505 13.3444 4.39536C13.2375 4.28192 13.0594 4.28005 12.9502 4.38927L12.1781 5.1613C12.0708 5.26864 12.0708 5.44255 12.1781 5.54989L12.9502 6.32192C13.0036 6.37536 13.0739 6.40255 13.1442 6.40255C13.2145 6.40255 13.2806 6.37724 13.3336 6.32708Z" fill="white"/>
</svg>
