<svg width="30" height="30" viewBox="0 0 30 30" fill="none" xmlns="http://www.w3.org/2000/svg">
<g clip-path="url(#clip0_259_1136)">
<path d="M25.147 10.9885C25.2972 11.1365 25.499 11.2202 25.7098 11.2221H25.8107C25.9318 11.206 26.0476 11.1628 26.1497 11.0956C26.2517 11.0285 26.3373 10.9393 26.4001 10.8345L29.8939 4.91418C29.9825 4.76203 30.0185 4.58497 29.9964 4.41032C29.9743 4.23567 29.8954 4.07314 29.7718 3.94781L27.3505 1.52657C27.2221 1.40507 27.057 1.32973 26.8811 1.31243C26.7051 1.29512 26.5285 1.33683 26.3789 1.43099L20.4638 4.89825C20.3586 4.9586 20.2691 5.04297 20.2027 5.14447C20.1362 5.24597 20.0947 5.36173 20.0815 5.48232C20.0665 5.60259 20.0787 5.72472 20.1173 5.83962C20.1559 5.95452 20.2199 6.05925 20.3045 6.14604L21.77 7.62745L16.3859 13.0328L14.1187 10.8823C14.7362 9.5137 14.9291 7.99137 14.6726 6.51197C14.4161 5.03257 13.7219 3.66406 12.6797 2.5832C11.6559 1.53298 10.3422 0.811885 8.90642 0.512063C7.47068 0.212242 5.97815 0.347314 4.61957 0.900018C4.53863 0.933359 4.46719 0.986194 4.4116 1.05382C4.35602 1.12145 4.31802 1.20177 4.30098 1.28763C4.2839 1.37293 4.28804 1.46113 4.31304 1.54445C4.33804 1.62778 4.38313 1.70369 4.44435 1.7655L7.29567 4.61683C7.51157 4.81342 7.6854 5.05171 7.80665 5.31734C7.9279 5.58296 7.99406 5.8704 8.00115 6.1623C8.00823 6.45421 7.95609 6.74452 7.84787 7.01571C7.73964 7.2869 7.57759 7.53335 7.37148 7.74018C7.16537 7.94701 6.91949 8.10992 6.64867 8.21908C6.37786 8.32825 6.08773 8.3814 5.7958 8.37533C5.50388 8.36926 5.21621 8.3041 4.95016 8.18377C4.68412 8.06345 4.44522 7.89045 4.24789 7.67524L1.40718 4.83453C1.34534 4.77154 1.26878 4.72496 1.18441 4.699C1.10005 4.67304 1.01054 4.66852 0.923992 4.68586C0.836606 4.7026 0.754828 4.74104 0.686172 4.79763C0.617516 4.85423 0.564182 4.92717 0.531071 5.00975C-0.0088952 6.38611 -0.12617 7.89223 0.194236 9.33558C0.514643 10.7789 1.25818 12.094 2.3298 13.1126C3.40142 14.1312 4.75244 14.8071 6.21018 15.0539C7.66792 15.3008 9.16615 15.1073 10.5134 14.4982L11.6815 15.7354L2.60718 24.385C2.16678 24.8043 1.86212 25.3459 1.7325 25.94C1.60289 26.5341 1.65426 27.1534 1.87999 27.718C2.10572 28.2826 2.49545 28.7666 2.99891 29.1076C3.50237 29.4486 4.09646 29.6309 4.70452 29.631H4.74169C5.14678 29.6258 5.54672 29.5395 5.9179 29.3772C6.28908 29.2149 6.62395 28.9798 6.90275 28.6859L15.462 19.6965L24.0107 28.6859C24.2908 28.9811 24.6274 29.2169 25.0005 29.3793C25.3736 29.5416 25.7755 29.6272 26.1824 29.631H26.2196C26.8276 29.6309 27.4217 29.4486 27.9252 29.1076C28.4286 28.7666 28.8184 28.2826 29.0441 27.718C29.2698 27.1534 29.3212 26.5341 29.1916 25.94C29.062 25.3459 28.7573 24.8043 28.3169 24.385L18.3081 14.8646L23.6656 9.5071L25.147 10.9885Z" fill="#868686"/>
</g>
<defs>
<clipPath id="clip0_259_1136">
<rect width="30" height="30" fill="white"/>
</clipPath>
</defs>
</svg>
